<svg width="32" height="30" viewBox="0 0 32 30" fill="none" xmlns="http://www.w3.org/2000/svg">
<path d="M12.75 13.5L9.75 17.25L12.75 21" fill="#155DFC"/>
<path d="M18.75 13.5L21.75 17.25L18.75 21" fill="#155DFC"/>
<path d="M27.75 27.75C28.5457 27.75 29.3087 27.4339 29.8713 26.8713C30.4339 26.3087 30.75 25.5456 30.75 24.75V9.75C30.75 8.95435 30.4339 8.19129 29.8713 7.62868C29.3087 7.06607 28.5457 6.75 27.75 6.75H15.9C15.3983 6.75492 14.9033 6.63392 14.4605 6.39807C14.0176 6.16222 13.6409 5.81906 13.365 5.4L12.15 3.6C11.8768 3.1852 11.505 2.84472 11.0677 2.60909C10.6305 2.37347 10.1417 2.25008 9.645 2.25H3.75C2.95435 2.25 2.19129 2.56607 1.62868 3.12868C1.06607 3.69129 0.75 4.45435 0.75 5.25V24.75C0.75 25.5456 1.06607 26.3087 1.62868 26.8713C2.19129 27.4339 2.95435 27.75 3.75 27.75H27.75Z" fill="#155DFC"/>
<path d="M12.75 13.5L9.75 17.25L12.75 21M18.75 13.5L21.75 17.25L18.75 21M27.75 27.75C28.5456 27.75 29.3087 27.4339 29.8713 26.8713C30.4339 26.3087 30.75 25.5456 30.75 24.75V9.75C30.75 8.95435 30.4339 8.19129 29.8713 7.62868C29.3087 7.06607 28.5456 6.75 27.75 6.75H15.9C15.3983 6.75492 14.9033 6.63392 14.4605 6.39807C14.0176 6.16222 13.6409 5.81906 13.365 5.4L12.15 3.6C11.8768 3.1852 11.505 2.84472 11.0677 2.60909C10.6305 2.37347 10.1417 2.25008 9.645 2.25H3.75C2.95435 2.25 2.19129 2.56607 1.62868 3.12868C1.06607 3.69129 0.75 4.45435 0.75 5.25V24.75C0.75 25.5456 1.06607 26.3087 1.62868 26.8713C2.19129 27.4339 2.95435 27.75 3.75 27.75H27.75Z" stroke="white" stroke-width="1.5" stroke-linecap="round" stroke-linejoin="round"/>
</svg>
