<svg width="7" height="11" viewBox="0 0 7 11" fill="none" xmlns="http://www.w3.org/2000/svg">
<path d="M3.33319 0C3.50999 3.77583e-05 3.67953 0.0703006 3.80452 0.195333L6.47119 2.862C6.59263 2.98773 6.65983 3.15614 6.65831 3.33093C6.65679 3.50573 6.58668 3.67294 6.46307 3.79655C6.33946 3.92015 6.17226 3.99026 5.99746 3.99178C5.82266 3.9933 5.65426 3.92611 5.52852 3.80467L3.33319 1.60933L1.13786 3.80467C1.01212 3.92611 0.843722 3.9933 0.668924 3.99178C0.494126 3.99026 0.326917 3.92015 0.203312 3.79655C0.0797065 3.67294 0.00959371 3.50573 0.00807476 3.33093C0.00655581 3.15614 0.0737524 2.98773 0.195191 2.862L2.86186 0.195333C2.98685 0.0703006 3.15639 3.77583e-05 3.33319 0ZM0.195191 6.862C0.32021 6.73702 0.489748 6.66681 0.666524 6.66681C0.8433 6.66681 1.01284 6.73702 1.13786 6.862L3.33319 9.05733L5.52852 6.862C5.65426 6.74056 5.82266 6.67336 5.99746 6.67488C6.17226 6.6764 6.33946 6.74652 6.46307 6.87012C6.58668 6.99373 6.65679 7.16093 6.65831 7.33573C6.65983 7.51053 6.59263 7.67893 6.47119 7.80467L3.80452 10.4713C3.67951 10.5963 3.50997 10.6665 3.33319 10.6665C3.15641 10.6665 2.98688 10.5963 2.86186 10.4713L0.195191 7.80467C0.0702104 7.67965 0 7.51011 0 7.33333C0 7.15656 0.0702104 6.98702 0.195191 6.862Z" fill="#323639"/>
</svg>
